<svg t="1575424496563" class="icon" viewBox="0 0 1024 1024" version="1.1" 
  xmlns="http://www.w3.org/2000/svg" p-id="2337" width="200" height="200">
  <path d="M571.32222 732.3c0 18.5 7.6 36.9 20.7 49.9 13.1 13.1 31.5 20.7 50 20.7s36.9-7.6 50-20.7c13.1-13.1 20.7-31.4 20.7-49.9s-7.6-36.9-20.7-49.9c-13.1-13.1-31.5-20.7-50-20.7s-36.9 7.6-50 20.7c-13.1 13.1-20.7 31.4-20.7 49.9z m-492.7 0c0 18.5 7.6 36.9 20.7 49.9 13.1 13.1 31.5 20.7 50 20.7s36.9-7.6 50-20.7c13.1-13.1 20.7-31.4 20.7-49.9s-7.6-36.9-20.7-49.9c-13.1-13.1-31.5-20.7-50-20.7s-36.9 7.6-50 20.7c-13 13.1-20.7 31.4-20.7 49.9z m665.1-5.4c0 1.8-0.1 3.7-0.1 5.5H831.02222v-93.6H694.72222c29.4 18.3 49 50.9 49 88.1z m115.6-183v-34.2h89.2v-74.5h-89.2v-35.9h145V347h-145V241.9c0-12.2-10.3-22.1-22.9-22.1H336.82222c-12.7 0-22.9 9.9-22.9 22.1v336c0 12.2 10.3 22.1 22.9 22.1h499.5c11.1 0 20.3-7.5 22.5-17.5H1023.02222V544H859.32222z m0 0" fill="#8a8a8a" p-id="2338"></path>
  <path d="M582.62222 638.7h-291V307.4H125.92222s-33.8 11.5-79.4 76.7C11.42222 434.3 1.82222 492.3 0.22222 508.6c-0.5 4.5 0 18.2 0 18.2v205.6h43.4c-0.1-1.8-0.1-3.6-0.1-5.5 0-24.7 8.6-47.3 23-65.2 7.3-9.1 16.1-16.8 25.9-23 0.7-0.4 1.4-0.9 2.1-1.3 2.3-1.4 4.7-2.7 7.1-3.9 14.3-7.1 30.1-10.7 46-10.7 16.5 0 32.2 3.9 46 10.7 2.4 1.2 4.8 2.5 7.1 3.9 0.7 0.4 1.4 0.9 2.1 1.3 9.9 6.2 18.6 14 25.9 23 14.4 17.8 23 40.5 23 65.2 0 1.8 0 3.7-0.1 5.5h280.6c-0.1-1.7-0.1-3.5-0.1-5.2 0.1-37.7 20.3-70.6 50.5-88.5zM253.82222 437.3v54.8h-181v-72.8L91.02222 400.9l18.2-18.2 18.1-17.9 18.5-18.7h108v91.2z m0 0" fill="#8a8a8a" p-id="2339"></path>
</svg>