<svg t="1575423681696" class="icon" viewBox="0 0 1079 1024" version="1.1" 
  xmlns="http://www.w3.org/2000/svg" p-id="17127" width="200" height="200">
  <path d="M221.603697 811.694567l20.057976 159.838769s130.746181-56.480532 165.407272-77.618115c40.05913 9.091434 82.107011 13.921258 125.234499 13.921257 266.549472 0 478.4367-171.203061 478.4367-405.818872s-211.944049-425.649563-478.4367-425.649563S53.866745 267.344973 53.866745 502.017606c0 126.655036 65.628787 236.377277 167.736952 309.676961z m-50.741565 28.126623C63.015 754.702642 0 634.297966 0 501.960784 0 236.377277 237.968278 23.808192 532.360266 23.808192s532.360266 212.569085 532.360266 478.152592c0 262.628792-234.16124 458.321902-532.360266 458.321903-39.490915 0-78.527259-3.693395-116.483995-10.909721-14.205365 7.38679-32.785983 16.307759-55.400924 26.81973l-8.920969 4.091145a4460.257383 4460.257383 0 0 1-87.959622 39.206808c-33.07009 14.262187-70.913183-6.648111-75.288435-41.593309l-17.444189-138.07615z" fill="#8a8a8a" p-id="17128"></path>
  <path d="M532.360266 801.750811c-15.455437 0-28.01298-15.56908-28.01298-34.717912s12.557543-34.717913 28.01298-34.717913 28.01298 15.56908 28.01298 34.717913-12.557543 34.717913-28.01298 34.717912z m0-555.657064c15.455437 0 28.01298 12.557543 28.01298 28.01298v360.702633a28.01298 28.01298 0 0 1-56.02596 0V274.106727a27.956159 27.956159 0 0 1 28.01298-28.01298z" fill="#8a8a8a" p-id="17129"></path>
</svg>