<svg t="1575425980308" class="icon" viewBox="0 0 1024 1024" version="1.1" 
  xmlns="http://www.w3.org/2000/svg" p-id="18533" width="200" height="200">
  <path d="M320 512c0 105.984 86.016 192 192 192s192-86.016 192-192-86.016-192-192-192S320 406.016 320 512z" fill="#8a8a8a" p-id="18534"></path>
  <path d="M992.256 479.744h-97.28c-15.872-186.88-163.84-334.848-350.72-350.72v-97.28c0-17.92-14.336-31.744-32.256-31.744-17.408 0-31.744 14.336-31.744 31.744v97.28c-186.88 15.872-334.848 163.84-350.72 350.72h-97.28C14.336 480.256 0 494.592 0 512s14.336 31.744 31.744 31.744h97.28c15.872 186.88 163.84 334.848 350.72 350.72v97.28c0 17.92 14.336 31.744 32.256 31.744 17.408 0 31.744-14.336 31.744-31.744v-97.28c186.88-15.872 334.848-163.84 350.72-350.72h97.28c17.92 0 31.744-14.336 31.744-32.256 0.512-17.408-13.824-31.232-31.232-31.744zM512 832c-176.64 0-320-143.36-320-320s143.36-320 320-320 320 143.36 320 320-143.36 320-320 320z" fill="#8a8a8a" p-id="18535"></path>
</svg>