<svg t="1575424684562" class="icon" viewBox="0 0 1024 1024" version="1.1" 
  xmlns="http://www.w3.org/2000/svg" p-id="9276" width="200" height="200">
  <path d="M512 613.376s192-61.44 192-226.816c0-105.984-86.016-192-192-192S320 281.088 320 387.072c0 164.352 192 226.304 192 226.304z" fill="#d81e06" p-id="9277"></path>
  <path d="M512 109.056c146.432 0 265.216 118.784 265.216 265.216 0 195.072-199.168 293.376-265.216 321.024-66.048-27.648-265.216-126.464-265.216-321.024 0-146.432 118.784-265.216 265.216-265.216m0-68.608C327.68 40.448 178.688 189.44 178.688 373.76c0 285.696 333.312 393.728 333.312 393.728S845.312 660.48 845.312 373.76c0-183.808-148.992-333.312-333.312-333.312z" fill="#d81e06" p-id="9278"></path>
  <path d="M512 1017.344c-215.04 0-432.64-56.832-432.64-165.888 0-62.976 71.68-113.664 202.24-142.848l14.848 66.56c-108.544 24.064-148.992 59.392-148.992 76.288 0 33.28 128.512 97.792 364.032 97.792s364.032-64.512 364.032-97.792c0-16.896-40.96-52.224-151.04-76.8l14.848-66.56c132.096 29.184 204.288 79.872 204.288 143.36 0.512 109.056-216.576 165.888-431.616 165.888zM485.376 500.736c-7.68 0-14.848-3.072-19.968-8.192L381.44 409.088c-11.264-11.264-11.264-29.184 0-40.448s29.184-11.264 40.448 0l63.488 63.488 116.736-116.736c11.264-11.264 29.184-11.264 40.448 0s11.264 29.184 0 40.448L505.344 492.544c-5.12 5.632-12.8 8.192-19.968 8.192z" fill="#d81e06" p-id="9279"></path>
  <path d="M700.928 840.704c0 18.944-57.856 34.816-189.44 34.816-133.12 0-189.44-15.36-189.44-34.816s55.808-34.816 189.44-34.816c140.288 0 189.44 15.36 189.44 34.816z" fill="#d81e06" p-id="9280"></path>
</svg>
