<svg t="1575425845628" class="icon" viewBox="0 0 1024 1024" version="1.1" 
  xmlns="http://www.w3.org/2000/svg" p-id="16068" width="200" height="200">
  <path d="M552.065514 888.895359L193.339399 736.087352V297.230209l358.726115-153.739763 358.726115 153.739763v439.788899L552.065514 888.895359z m-316.797088-179.828935l316.797088 135.104641 316.797088-135.104641V324.251137l-316.797088-136.036396-316.797088 136.036396v384.815287z" fill="#8a8a8a" p-id="16069"></path>
  <path d="M560.451319 474.263876l-16.77161-38.202002L881.907188 291.639672l15.839855 38.202002zM385.281165 396.928116L369.44131 358.726115 706.737034 214.303913l16.77161 38.202001z" fill="#8a8a8a" p-id="16070"></path>
  <path d="M543.679709 474.263876L205.452229 329.841674l16.771611-38.202002 338.227479 144.422202z" fill="#8a8a8a" p-id="16071"></path>
  <path d="M531.566879 455.628753h41.929026V866.533212h-41.929026zM383.417652 533.896269c-11.181074 0-20.498635-9.317561-20.498635-20.498635v-130.44586c0-11.181074 9.317561-20.498635 20.498635-20.498635s20.498635 9.317561 20.498636 20.498635V512.465878c0 12.11283-9.317561 21.430391-20.498636 21.430391z" fill="#8a8a8a" p-id="16072"></path>
</svg>