<svg t="1575598276323" class="icon" viewBox="0 0 1024 1024" version="1.1" 
  xmlns="http://www.w3.org/2000/svg" p-id="12422" width="200" height="200">
  <path d="M457.788235 406.588235V301.176471L271.058824 484.894118l186.729411 183.717647v-108.42353c132.517647 0 228.894118 42.164706 295.152941 132.517647-27.105882-129.505882-108.423529-262.023529-295.152941-286.117647z" fill="#8a8a8a" p-id="12423"></path>
  <path d="M512 1008.941176C237.929412 1008.941176 15.058824 786.070588 15.058824 512S237.929412 15.058824 512 15.058824 1008.941176 237.929412 1008.941176 512 786.070588 1008.941176 512 1008.941176z m0-963.764705C256 45.176471 45.176471 256 45.176471 512s210.823529 466.823529 466.823529 466.823529 466.823529-210.823529 466.823529-466.823529S768 45.176471 512 45.176471z" fill="#8a8a8a" p-id="12424"></path>
</svg>